# xmcd
#
# Track frame offsets:
#  150
#  15453
#  41463
#  56342
#  70077
#  91321
#  104956
#  126448
#  144879
#  166180
#  185917
#  205044
#  221678
#
# Disc length: 3186 seconds
#
# Revision: 0
# Processed by: cddbd v1.5.1PL2 Copyright (c) Steve Scherf et al.
# Submitted via: Collectorz.com_Music_Collector 6.9
#
DISCID=b90c700d
DTITLE=Ray Dorset and Mungo Jerry - Loving In The Alleys
DYEAR=1977
DGENRE=Mungo Jerry
TTITLE0=Heavy Foot Stomp
TTITLE1=Gone To Malaya
TTITLE2=Can't Keep It Down
TTITLE3=Lovin' In The Morning
TTITLE4=Just Can't Say Goodbye
TTITLE5=All That A Woman Should Be
TTITLE6=I Could Never Start Lovin' You
TTITLE7=Lovin' In The Alleys An' Fightin' In The Streets
TTITLE8=The Grease
TTITLE9=Dragster Queen
TTITLE10=Data track
TTITLE11=Data track
TTITLE12=Data track
EXTD=
EXTT0=
EXTT1=
EXTT2=
EXTT3=
EXTT4=
EXTT5=
EXTT6=
EXTT7=
EXTT8=
EXTT9=
EXTT10=
EXTT11=
EXTT12=
PLAYORDER=
